{"title":"Projeto Thomaz Farkas 3 - Guido AraÃƒÂºjo, Sergio Muniz, Roberto D","uid":5561858,"size":1660982212,"categoryP":"video","categoryS":"movies","magnet":"?xt=urn:btih:1831d848d5e5eaac61d287da5199cba6ceaa9e42&amp;dn=Projeto+Thomaz+Farkas+3+-+Guido+Ara%C3%83%C2%BAjo%2C+Sergio+Muniz%2C+Roberto+D&amp;tr=udp%3A%2F%2Ftracker.openbittorrent.com%3A80&amp;tr=udp%3A%2F%2Fopen.demonii.com%3A1337&amp;tr=udp%3A%2F%2Ftracker.coppersurfer.tk%3A6969&amp;tr=udp%3A%2F%2Fexodus.desync.com%3A6969","seeders":2,"leechers":0,"uploader":"mfccorrea","files":7,"time":1273855090,"description":"Projeto Thomaz Farkas 3 - Guido AraÃƒÂºjo, Sergio Muniz, Roberto Duarte, Miguel Rio Branco\n\nProject Thomaz Farkas is a collection of 39 documentaries produced by Thomas Farkas  in the 1960s and 1970s, featuring various cultural events of Brazil linked to the specific reality of each region. The documentaries were organized in a box containing seven discs, and include a short interview with the participation of renowned photographer, producer and documentary filmmaker, exposing a broad universe of Brazilian culture.\n\nThe Disc 3 contains the following documentaries:\n\nGuido AraÃƒÂºjo - A Morte das Velas do RecÃƒÂ´ncavo (1976)\nGuido AraÃƒÂºjo - Feira da Banana (1973)\nMiguel Rio Branco - Trio ElÃƒÂ©trico (1978)\nRoberto Duarte - Ensaio (1975)\nSergio Muniz - De RaÃƒÂ­zes e Rezas, Entre Outros (1972)\nSergio Muniz - Roda &amp; Outras EstÃƒÂ³rias (1965)\n\nAll films have Portuguese audio, and no subtitles. There's a 300 dpi scan of the DVD cover included.\n\n   General\n      Complete name : Projeto Thomaz Farkas - Guido AraÃƒÂºjo, Sergio Muniz, Roberto Duarte, Miguel Rio Branco.avi\n      Format : AVI\n      Format/Info : Audio Video Interleave\n      File size : 1.54 GiB\n      Duration : 1h 53mn\n      Overall bit rate : 1 954 Kbps\n      Writing application : FairUse Wizard - http://fairusewizard.com\n      Writing library : VirtualDub build 32593/release\n   Video #0\n      ID : 0\n      Format : MPEG-4 Visual\n      Format profile : AdvancedSimple@L5\n      Format settings, BVOP : Yes\n      Format settings, QPel : No\n      Format settings, GMC : No warppoints\n      Format settings, Matrix : Default (MPEG)\n      Muxing mode : Packed bitstream\n      Codec ID : XVID\n      Codec ID/Hint : XviD\n      Duration : 1h 53mn\n      Bit rate : 1 721 Kbps\n      Width : 640 pixels\n      Height : 464 pixels\n      Display aspect ratio : 1.379\n      Frame rate : 23.976 fps\n      Resolution : 24 bits\n      Colorimetry : 4:2:0\n      Scan type : Progressive\n      Bits/(Pixel*Frame) : 0.242\n      Stream size : 1.36 GiB (88%)\n      Writing library : XviD 1.2.0.dev47 (UTC 2006-11-01)\n   Audio #1\n      ID : 1\n      Format : AC-3\n      Format/Info : Audio Coding 3\n      Codec ID : 2000\n      Duration : 1h 53mn\n      Bit rate mode : Constant\n      Bit rate : 224 Kbps\n      Channel(s) : 2 channels\n      Channel positions : L R\n      Sampling rate : 48.0 KHz\n      Stream size : 181 MiB (11%)\n      Alignment : Split accross interleaves\n      Interleave, duration : 42 ms (1.00 video frame)\n      Interleave, preload duration : 500 ms\n\nAll films were ripped individually. The specs refer to the films assembled together.\n","torrent":{"xt":"urn:btih:1831d848d5e5eaac61d287da5199cba6ceaa9e42","amp;dn":"Projeto+Thomaz+Farkas+3+-+Guido+Ara%C3%83%C2%BAjo%2C+Sergio+Muniz%2C+Roberto+D","amp;tr":["udp%3A%2F%2Ftracker.openbittorrent.com%3A80","udp%3A%2F%2Fopen.demonii.com%3A1337","udp%3A%2F%2Ftracker.coppersurfer.tk%3A6969","udp%3A%2F%2Fexodus.desync.com%3A6969"],"infoHash":"1831d848d5e5eaac61d287da5199cba6ceaa9e42","infoHashBuffer":{"type":"Buffer","data":[24,49,216,72,213,229,234,172,97,210,135,218,81,153,203,166,206,170,158,66]},"announce":[],"urlList":[]}}